<?xml version="1.0" encoding="utf-8"?><svg viewBox="0 0 80 80" xmlns="http://www.w3.org/2000/svg" xmlns:xlink="http://www.w3.org/1999/xlink"><style>:root>svg{display:none}:root>svg:target{display:block}</style><svg viewBox="0 0 18 18" id="arrow" xmlns="http://www.w3.org/2000/svg"><path fill-rule="evenodd" clip-rule="evenodd" d="M13.125 6l1.125 1.125L9.375 12 4.5 7.125 5.625 6l3.75 3.75L13.125 6z"/></svg><svg viewBox="0 0 24 24" id="boost-productivity" xmlns="http://www.w3.org/2000/svg"><path d="M23.948.042A17.934 17.934 0 0022.734 0c-8.6 0-13.497 6.557-15.278 11.833l4.727 4.727C17.611 14.616 24 9.9 24 1.392c0-.44-.017-.89-.052-1.35zM12.671 14.22l-2.883-2.883c1.221-2.859 4.691-8.945 12.199-9.32-.251 5.775-4.041 9.932-9.316 12.203zm5.471 1.538c-.547.373-1.09.71-1.628 1.011-.187.891-.662 1.842-1.351 2.652-.002-.576-.162-1.156-.443-1.738a23.86 23.86 0 01-1.414.588c.66 1.709-.012 2.971-.915 4.154 1.296-.098 2.656-.732 3.728-1.805 1.155-1.155 1.967-2.823 2.023-4.862zM6.322 9.289c-.579-.28-1.158-.438-1.732-.441.803-.681 1.744-1.153 2.626-1.345.314-.552.667-1.097 1.039-1.633-2.039.055-3.708.867-4.864 2.023-1.071 1.071-1.706 2.433-1.804 3.728 1.184-.904 2.446-1.576 4.155-.914.173-.471.366-.944.58-1.418zm7.738.663a.999.999 0 111.414-1.414 1 1 0 11-1.414 1.414zm4.949-4.951a2 2 0 10-2.826 2.829 2 2 0 002.826-2.829zm-1.908 1.911a.7.7 0 01.99-.99.703.703 0 010 .99.703.703 0 01-.99 0zm-6.747 10.65C8.862 21.372 4.551 23.77 0 24c.219-4.289 2.657-8.676 6.64-10.153l.805.806c-4.331 2.755-4.653 5.346-4.665 6.575 1.268-.015 4.054-.344 6.778-4.464l.796.798z"/></svg><svg fill="none" viewBox="0 0 80 80" id="calendar" xmlns="http://www.w3.org/2000/svg"><path fill-rule="evenodd" clip-rule="evenodd" d="M18 7h36V3.75c0-.995.421-1.948 1.172-2.652A4.14 4.14 0 0158 0a4.14 4.14 0 012.828 1.098A3.635 3.635 0 0162 3.75V7h10v65H.001V7H10V4a4 4 0 118 0v3zm-2.152 5.766A2 2 0 0016 12V4a2 2 0 10-4 0v8a1.998 1.998 0 002.766 1.848 2 2 0 001.082-1.082zM14 16a4 4 0 01-4-4V9H2.001v12H70V9h-8v2.25c0 .493-.103.98-.304 1.435a3.742 3.742 0 01-.867 1.217 4.026 4.026 0 01-1.298.813A4.232 4.232 0 0158 15a4.232 4.232 0 01-1.53-.285 4.026 4.026 0 01-1.299-.813 3.742 3.742 0 01-.867-1.217A3.547 3.547 0 0154 11.25V9H18v3a3.999 3.999 0 01-4 4zm56 7H2.001v47H70V23zM57.193 12.85a2.234 2.234 0 001.614 0c.252-.098.473-.238.654-.407.18-.17.315-.362.405-.566.09-.203.134-.416.134-.627v-7.5c0-.42-.177-.853-.54-1.193A2.14 2.14 0 0058 2a2.14 2.14 0 00-1.46.557c-.363.34-.54.772-.54 1.193v7.5c0 .212.044.424.134.627.09.204.225.397.405.566.18.169.402.31.654.407z" fill="#fff"/><path d="M80 19v61H8v-2h70V19h2z" fill="#fff"/><path d="M23 39.54V36h6.587v20H25.65V39.54H23zM33.203 52.104v-3.018l8.937-12.84h4.455v12.511H49v3.347h-2.405V56h-3.826v-3.896h-9.566zm9.811-11.742l-5.602 8.395h5.602v-8.395z" fill="#FFD200"/></svg><svg viewBox="0 0 24 24" id="cart" xmlns="http://www.w3.org/2000/svg"><path d="M14 19.5a1.5 1.5 0 103 0 1.5 1.5 0 00-3 0zM10.5 18a1.5 1.5 0 110 3 1.5 1.5 0 010-3zm-1.336-5L7.187 6H24l-2.938 7H9.164zM4.195 3l3.432 12h12.597l-.839 2H6.146L2.672 5H.743L0 3h4.195z"/></svg><svg viewBox="0 0 20 20" id="close-menu" xmlns="http://www.w3.org/2000/svg"><path fill-rule="evenodd" clip-rule="evenodd" d="M10.678 9.678l6.053-6.052a.834.834 0 00-1.178-1.179L9.5 8.5 3.59 2.59a.834.834 0 00-1.18 1.178l5.911 5.91-5.732 5.733a.834.834 0 001.179 1.178L9.5 10.857l5.874 5.874a.834.834 0 001.179-1.178l-5.875-5.875z"/></svg><svg viewBox="0 0 24 24" id="data-analysis" xmlns="http://www.w3.org/2000/svg"><path d="M16.488 20l3.414 4h-2.627l-3.42-4h2.633zM18 6h-4v1h4V6zm-7 18h2v-4h-2v4zm-6.918 0H6.71l3.42-4H7.497l-3.415 4zM18 8h-4v1h4V8zm0 2h-4v1h4v-1zm-8.5 3a3.49 3.49 0 003.45-3H9V6.05A3.49 3.49 0 006 9.5 3.5 3.5 0 009.5 13zm.5-6.95V9h2.95A3.483 3.483 0 0010 6.05zM18 12h-4v1h4v-1zm5-9h-1v15H2V3H1V0h22v3zm-3 0H4v13h16V3z"/></svg><svg viewBox="0 0 24 24" id="database-administrators" xmlns="http://www.w3.org/2000/svg"><path fill-rule="evenodd" clip-rule="evenodd" d="M0 4.05C0 .93 5.453 0 9.436 0c3.797 0 9.421.929 9.421 4.05v5.112a5.607 5.607 0 00-1.95-.194.833.833 0 00.064-.318V6.447C14.976 7.693 12.104 8.1 9.436 8.1c-2.676 0-5.554-.407-7.55-1.653V8.65c0 1.493 4.32 2.427 7.55 2.427 1.087 0 2.521-.13 3.847-.39a5.602 5.602 0 00-1.27 2.11c-.855.097-1.726.138-2.577.138-2.676 0-5.555-.408-7.55-1.653v2.195c0 1.497 4.333 2.427 7.55 2.428.707 0 1.553-.054 2.42-.163.14.652.394 1.26.74 1.806-1.042.15-2.117.213-3.16.213-2.676 0-5.554-.407-7.55-1.653v1.894c0 1.497 4.333 2.428 7.55 2.428.206 0 .424-.005.651-.014a9.99 9.99 0 00-.829 1.87C5.664 22.255 0 21.306 0 18.235V4.05zm16.971 0c0-1.349-4.105-2.193-7.535-2.193-3.013 0-7.55.722-7.55 2.192 0 1.353 4.333 2.194 7.55 2.193 2.723 0 7.535-.724 7.535-2.192z"/><path d="M20.334 18.545a4.965 4.965 0 01-6.005 0c-2.262.995-3.663 4.097-3.663 5.455H24c0-1.346-1.445-4.448-3.666-5.455zM17.333 17.945a3.39 3.39 0 100-6.778 3.39 3.39 0 000 6.778z"/><defs><clipPath id="agclip0_1_754"><path d="M0 0h24v24H0z"/></clipPath></defs></svg><svg viewBox="0 0 24 24" id="database-developers" xmlns="http://www.w3.org/2000/svg"><path fill-rule="evenodd" clip-rule="evenodd" d="M9.508 0C5.494 0 0 .96 0 4.18v14.64C0 22.042 5.899 23 9.508 23c.416 0 .863-.013 1.328-.04l-3.823-2.043C4.395 20.58 1.9 19.747 1.9 18.578v-1.955c1.394.892 3.216 1.367 5.1 1.575v-1.953c-2.613-.339-5.1-1.17-5.1-2.337v-2.265c2.01 1.285 4.912 1.706 7.608 1.706 1.871 0 3.836-.204 5.533-.758l1.186-.468c.306-.145.598-.304.873-.48v1.055l1.9.685V4.179C19 .96 13.333 0 9.508 0zm0 1.917c3.456 0 7.592.87 7.592 2.262 0 1.515-4.849 2.263-7.592 2.263-3.242 0-7.608-.867-7.608-2.263 0-1.518 4.571-2.262 7.608-2.262zm0 9.514c-3.255 0-7.608-.964-7.608-2.505V6.654C3.911 7.94 6.812 8.36 9.508 8.36c2.687 0 5.582-.42 7.592-1.706v2.273c0 1.68-4.874 2.504-7.592 2.504z"/><path d="M18 17v-1.999L24 18v2l-6 3v-2l4-2-4-2zM9 20v-2l6-2.999V17l-4 2 4 2v2l-6-3z"/></svg><svg fill="none" viewBox="0 0 24 24" id="devops-engineers" xmlns="http://www.w3.org/2000/svg"><path d="M5.428 6c6.018 0 8.414 10 13.143 10 2.114 0 3.48-1.578 3.48-4 0-2.422-1.366-4-3.48-4-1.665 0-2.861 1.069-4.017 2.395L13.31 8.833C14.809 7.301 16.359 6 18.57 6 21.768 6 24 8.455 24 12s-2.232 6-5.43 6C12.567 18 10.164 8 5.428 8c-2.113 0-3.479 1.578-3.479 4 0 2.422 1.365 4 3.479 4 1.664 0 2.86-1.068 4.015-2.392l1.244 1.561C9.188 16.7 7.637 18 5.428 18 2.231 18 0 15.545 0 12s2.231-6 5.428-6z" fill="#fff" opacity=".4"/></svg><svg viewBox="0 0 24 24" id="email" xmlns="http://www.w3.org/2000/svg"><path d="M1 4v17h22V4H1zm19.725 1.889L12 13.173 3.275 5.89h17.45zM2.833 19.11V7.951L12 15.604l9.167-7.653v11.16H2.833z"/></svg><svg viewBox="0 0 24 24" id="faq-arrow" xmlns="http://www.w3.org/2000/svg"><path d="M5 9.276l1.65-1.651 5.352 5.448 5.348-5.448L19 9.275l-6.998 7.1L5 9.275z"/></svg><svg viewBox="0 0 24 24" id="fb" xmlns="http://www.w3.org/2000/svg"><path d="M9.5 8.667H7V12h2.5v10h4.167V12h3.035L17 8.667h-3.333v-1.39c0-.795.16-1.11.929-1.11H17V2h-3.173C10.83 2 9.5 3.32 9.5 5.846v2.82z"/></svg><svg viewBox="0 0 22 24" id="file" xmlns="http://www.w3.org/2000/svg"><path d="M14 3v4h4v14H4V3h10zm1-2H2v22h18V6l-5-5z"/><path d="M7 10h8v1H7v-1zM7 13h8v1H7v-1zM7 16h8v1H7v-1z"/></svg><svg fill="none" viewBox="0 0 60 60" id="get-started" xmlns="http://www.w3.org/2000/svg"><path d="M18.382 28.2c-.88.72-1.34 1.733-1.38 3.04h2.74c.054-.44.24-.84.56-1.2.32-.36.8-.54 1.44-.54.64 0 1.134.16 1.48.48.347.32.52.753.52 1.3 0 1.266-.946 1.9-2.84 1.9h-.58v2.3h.58c1.08 0 1.867.173 2.36.52.507.333.76.853.76 1.56 0 .706-.186 1.253-.56 1.64-.36.373-.893.56-1.6.56-.706 0-1.273-.194-1.7-.58-.413-.4-.633-.927-.66-1.58h-2.72c.04 1.466.534 2.58 1.48 3.34.947.76 2.167 1.14 3.66 1.14 1.494 0 2.667-.38 3.52-1.14.854-.76 1.28-1.76 1.28-3 0-1.867-.8-3.074-2.4-3.62v-.08c.547-.187 1.04-.567 1.48-1.14.44-.587.66-1.307.66-2.16 0-1.107-.406-2.02-1.22-2.74-.813-.734-1.94-1.1-3.38-1.1-1.426 0-2.586.366-3.48 1.1z" fill="#3D4046"/><path fill-rule="evenodd" clip-rule="evenodd" d="M34.295 27.46c-3.587 0-5.38 2.42-5.38 7.26 0 4.826 1.793 7.24 5.38 7.24 3.6 0 5.4-2.414 5.4-7.24 0-4.84-1.8-7.26-5.4-7.26zm.02 2.6c.453 0 .847.086 1.18.26.333.173.587.393.76.66.187.266.333.62.44 1.06.107.426.173.84.2 1.24.04.4.06.873.06 1.42 0 .546-.02 1.02-.06 1.42-.027.4-.093.82-.2 1.26-.107.426-.253.78-.44 1.06a1.954 1.954 0 01-.76.66c-.333.173-.727.26-1.18.26-.453 0-.847-.087-1.18-.26a2.124 2.124 0 01-.78-.66 3.739 3.739 0 01-.42-1.06c-.107-.44-.18-.86-.22-1.26-.027-.4-.04-.874-.04-1.42 0-.547.013-1.02.04-1.42.04-.4.113-.814.22-1.24.107-.44.247-.794.42-1.06.187-.267.447-.487.78-.66.333-.174.727-.26 1.18-.26z" fill="#3D4046"/><path fill-rule="evenodd" clip-rule="evenodd" d="M15 4.5V6h25V4.5a3.5 3.5 0 117 0V6h7v48H1V6h7V4.5a3.5 3.5 0 117 0zM47 8v1.5a3.5 3.5 0 11-7 0V8H15v1.5a3.5 3.5 0 11-7 0V8H3v8h49V8h-5zM11.5 3A1.5 1.5 0 0010 4.5v5a1.5 1.5 0 003 0v-5A1.5 1.5 0 0011.5 3zM3 18h49v34H3V18zM42 4.5a1.5 1.5 0 013 0v5a1.5 1.5 0 01-3 0v-5z" fill="#3D4046"/><path d="M60 60V15h-2v43H7v2h53z" fill="#3D4046"/></svg><svg viewBox="0 0 24 24" id="improve-code-quality" xmlns="http://www.w3.org/2000/svg"><path d="M17 1.221L23 0l-1.201 6.001-1.667-1.66-8.28 8.137L8.86 9.485l-6.427 6.39-1.41-1.418 7.84-7.797 3.002 3.002 6.85-6.733L17 1.221z"/><path fill-rule="evenodd" clip-rule="evenodd" d="M9 24v-9h6v9H9zm2-7h2v5h-2v-5zM23 11h-6v13h6V11zm-2 11h-2v-9h2v9zM7 18v6H1v-6h6zm-2 4H3v-2h2v2z"/></svg><svg viewBox="0 0 24 24" id="in" xmlns="http://www.w3.org/2000/svg"><path d="M12 4.622c2.403 0 2.688.01 3.637.053 2.44.11 3.579 1.268 3.69 3.689.043.949.051 1.234.051 3.637 0 2.404-.009 2.688-.051 3.636-.112 2.42-1.248 3.579-3.69 3.69-.949.043-1.232.052-3.637.052-2.403 0-2.688-.009-3.637-.052-2.445-.112-3.578-1.275-3.689-3.69-.044-.949-.053-1.233-.053-3.637 0-2.403.01-2.687.053-3.637.112-2.42 1.248-3.578 3.69-3.689.949-.043 1.233-.052 3.636-.052zM12 3c-2.444 0-2.75.01-3.71.054-3.269.15-5.085 1.964-5.235 5.235C3.01 9.249 3 9.556 3 12s.01 2.751.054 3.711c.15 3.269 1.964 5.085 5.235 5.235.96.043 1.267.054 3.711.054s2.751-.01 3.711-.054c3.266-.15 5.086-1.963 5.234-5.235.044-.96.055-1.267.055-3.711s-.01-2.75-.054-3.71c-.147-3.266-1.963-5.085-5.234-5.235C14.75 3.01 14.444 3 12 3zm0 4.378a4.622 4.622 0 100 9.244 4.622 4.622 0 000-9.244zM12 15a3 3 0 110-6 3 3 0 010 6zm4.805-8.884a1.08 1.08 0 10-.001 2.161 1.08 1.08 0 000-2.16z"/></svg><svg viewBox="0 0 24 24" id="lk" xmlns="http://www.w3.org/2000/svg"><path d="M7.32 5.63c0 .901-.74 1.63-1.653 1.63-.914 0-1.654-.729-1.654-1.63 0-.9.74-1.63 1.654-1.63.913 0 1.653.73 1.653 1.63zm.013 2.935H4V19h3.333V8.565zm5.322 0H9.343V19h3.312v-5.478c0-3.045 4.02-3.294 4.02 0V19H20v-6.607c0-5.14-5.948-4.952-7.345-2.422V8.565z"/></svg><svg viewBox="0 0 20 20" id="menu" xmlns="http://www.w3.org/2000/svg"><path d="M19.167 10.816H.833a.834.834 0 010-1.667h18.334a.834.834 0 010 1.667zM19.167 4.427H.833a.834.834 0 010-1.667h18.334a.834.834 0 010 1.667zM19.167 17.205H.833a.834.834 0 010-1.667h18.334a.834.834 0 010 1.667z"/></svg><svg fill="none" viewBox="0 0 80 80" id="message" xmlns="http://www.w3.org/2000/svg"><path d="M70.39 40.52a25.4 25.4 0 004.086-17.225c-.746-6.056-3.638-11.627-8.135-15.67-4.497-4.043-10.29-6.28-16.293-6.292-6.004-.012-11.805 2.203-16.317 6.228-4.513 4.025-7.426 9.585-8.195 15.638a25.401 25.401 0 004.02 17.24c3.36 5.058 8.418 8.697 14.227 10.236a24.303 24.303 0 0017.33-1.88l12.736 4.538-3.458-12.814z" stroke="#FFD200" stroke-width="2" stroke-miterlimit="10"/><path d="M20 32H7v34h7v10l11-10h39V54M15 41h8M15 49h13M15 57l24 .04" stroke="#fff" stroke-width="2" stroke-miterlimit="10"/><path d="M40.889 27.111a3.111 3.111 0 11-6.223 0 3.111 3.111 0 016.223 0zM53.333 27.111a3.111 3.111 0 11-6.222 0 3.111 3.111 0 016.222 0zM65.778 27.111a3.111 3.111 0 11-6.223 0 3.111 3.111 0 016.223 0z" fill="#FFD200"/></svg><svg fill="none" viewBox="0 0 60 60" id="need-a-hand" xmlns="http://www.w3.org/2000/svg"><g clip-path="url(#atclip0_1_1047)" fill="#3D4046"><path d="M30.667 20.333a2.333 2.333 0 11-4.667 0 2.333 2.333 0 014.667 0zM40 20.333a2.333 2.333 0 11-4.667 0 2.333 2.333 0 014.667 0zM47 22.667A2.333 2.333 0 1047 18a2.333 2.333 0 000 4.667z"/><path fill-rule="evenodd" clip-rule="evenodd" d="M37.538 0a19.326 19.326 0 00-12.906 4.925 19.902 19.902 0 00-6.472 12.348 20.051 20.051 0 003.174 13.61c2.653 3.995 6.651 6.873 11.247 8.09a19.225 19.225 0 0013.32-1.292l10.949 3.902-2.975-11.022a20.055 20.055 0 002.974-13.212 19.906 19.906 0 00-6.425-12.374A19.328 19.328 0 0037.538 0zM25.964 6.417A17.326 17.326 0 0137.534 2a17.328 17.328 0 0111.553 4.462 17.905 17.905 0 015.777 11.131 18.05 18.05 0 01-2.902 12.24l-.253.378 2.215 8.206-8.16-2.908-.385.198a17.228 17.228 0 01-12.286 1.333c-4.118-1.09-7.707-3.671-10.093-7.264a18.052 18.052 0 01-2.856-12.25 17.902 17.902 0 015.82-11.109z"/><path d="M15.078 23H4v28h5v9.21L19.486 51H49v-9h-2v7H18.733L11 55.79V49H6V25h9.078v-2z"/><path d="M17 32h-6v-2h6v2zM11 38h10v-2H11v2zM28.998 44.03l-18-.03.004-2 18 .03-.003 2z"/></g><defs><clipPath id="atclip0_1_1047"><path fill="#fff" d="M0 0h60v60H0z"/></clipPath></defs></svg><svg viewBox="0 0 10 11" id="on-top" xmlns="http://www.w3.org/2000/svg"><path fill-rule="evenodd" clip-rule="evenodd" d="M10 4.646L5 0 0 4.646l1.25 1.188 2.907-2.713v6.889h1.688V3.122L8.75 5.834 10 4.646z"/></svg><svg viewBox="0 0 24 24" id="operate-with-data" xmlns="http://www.w3.org/2000/svg"><path d="M19 2c1.654 0 3 1.346 3 3v14c0 1.654-1.346 3-3 3H5c-1.654 0-3-1.346-3-3V5c0-1.654 1.346-3 3-3h14zm5 3a5 5 0 00-5-5H5a5 5 0 00-5 5v14a5 5 0 005 5h14a5 5 0 005-5V5zm-8 5a1.001 1.001 0 010 2 1.001 1.001 0 010-2zm0-2a3 3 0 100 6 3 3 0 000-6zm-8 2a3 3 0 100 6 3 3 0 000-6zm8-4c.343 0 .677.035 1 .101V5a1 1 0 10-2 0v1.101A4.988 4.988 0 0116 6zM8 8c.343 0 .677.035 1 .101V5a1 1 0 10-2 0v3.101A4.988 4.988 0 018 8zm8 8c-.343 0-.677-.035-1-.101V19a1 1 0 102 0v-3.101A4.988 4.988 0 0116 16zm-8 2c-.343 0-.677-.035-1-.101V19a1 1 0 102 0v-1.101A4.988 4.988 0 018 18z"/></svg><svg fill="none" viewBox="0 0 60 60" id="percent" xmlns="http://www.w3.org/2000/svg"><path fill-rule="evenodd" clip-rule="evenodd" d="M15.242 8.394a4.255 4.255 0 00-3.017 1.257 4.31 4.31 0 00-.922 4.668 4.282 4.282 0 001.568 1.925 4.247 4.247 0 004.743 0 4.283 4.283 0 001.569-1.925 4.31 4.31 0 00-.923-4.668 4.255 4.255 0 00-3.018-1.257zm-1.599 2.667a2.255 2.255 0 013.198 0 2.31 2.31 0 01.491 2.497 2.282 2.282 0 01-.835 1.026 2.247 2.247 0 01-2.51 0 2.281 2.281 0 01-.835-1.026 2.31 2.31 0 01.491-2.497zM33.98 19.572a3.705 3.705 0 00-5.266-.001 3.768 3.768 0 00.001 5.302 3.705 3.705 0 005.265 0 3.768 3.768 0 000-5.302zm-3.857 1.418c.675-.68 1.77-.68 2.447 0a1.75 1.75 0 010 2.465c-.674.68-1.77.68-2.446-.001a1.751 1.751 0 010-2.464z" fill="#fff"/><path d="M21.663 30.039l18.237-.224-.024-2.007-18.237.224.024 2.007z" fill="#fff"/><path fill-rule="evenodd" clip-rule="evenodd" d="M34.306 33.16a3.705 3.705 0 00-5.265-.001 3.768 3.768 0 000 5.302 3.705 3.705 0 005.266.001 3.768 3.768 0 000-5.302zm-3.856 1.418c.675-.68 1.77-.68 2.447.001a1.75 1.75 0 010 2.464c-.674.68-1.77.68-2.446-.001a1.751 1.751 0 010-2.464z" fill="#fff"/><path fill-rule="evenodd" clip-rule="evenodd" d="M25.161 0H3v22.393l31.478 31.695 22.265-22.41L25.161 0zM5 21.569V2h19.33l29.591 29.68L34.48 51.25 5 21.57z" fill="#fff"/><path d="M5.588 28.024l-1.42 1.41 30.325 30.523 20.883-21.02-1.419-1.41-19.464 19.592L5.588 28.024z" fill="#fff"/></svg><svg fill="none" viewBox="0 0 80 80" id="percent-2" xmlns="http://www.w3.org/2000/svg"><g clip-path="url(#axclip0_1_1187)" stroke-miterlimit="10"><path d="M6.211 38.47l40.83 40.811 27.814-27.8M47.022 71.246L5 29.232V.508h28.602l42.17 42-28.751 28.738zM23.683 13.317a4.5 4.5 0 11-6.367 6.363 4.5 4.5 0 016.367-6.363z" stroke="#fff" stroke-width="2"/><path d="M29.334 38.89l25.144-.306m-9.116-6.363a3.76 3.76 0 01-5.317-.001 3.76 3.76 0 115.317.001zm.45 18.603a3.76 3.76 0 01-5.316 0 3.76 3.76 0 115.316 0z" stroke="#FFD200" stroke-width="3"/></g><defs><clipPath id="axclip0_1_1187"><path fill="#fff" d="M0 0h80v80H0z"/></clipPath></defs></svg><svg fill="none" viewBox="0 0 24 25" id="play" xmlns="http://www.w3.org/2000/svg"><g clip-path="url(#ayclip0_3_1412)"><path d="M12 2.5c5.514 0 10 4.486 10 10s-4.486 10-10 10-10-4.486-10-10 4.486-10 10-10zm0-2C5.373.5 0 5.873 0 12.5s5.373 12 12 12 12-5.373 12-12-5.373-12-12-12zm-3 17v-10l9 5.146L9 17.5z" fill="#fff"/></g><defs><clipPath id="ayclip0_3_1412"><path fill="#fff" transform="translate(0 .5)" d="M0 0h24v24H0z"/></clipPath></defs></svg><svg viewBox="0 0 24 24" id="purchasing" xmlns="http://www.w3.org/2000/svg"><path d="M22 2v22H2V2h3C6.23 2 7.181.916 8 0h8c.82.916 1.771 2 3 2h3zM11 3a1 1 0 102 0 1 1 0 00-2 0zm9 1h-4l-2 2h-3.897L8 4H4v18h16V4zM7 13.729l.855-.791c1 .484 1.635.852 2.76 1.654 2.113-2.399 3.511-3.616 6.106-5.231l.279.64C14.859 11.87 13.291 13.95 11.033 18 9.64 16.36 8.711 15.314 7 13.729z"/></svg><svg viewBox="0 0 16 10" id="read-more-arrow" xmlns="http://www.w3.org/2000/svg"><path d="M11.732.5l-1.107 1.157 2.402 2.526H0v1.634h13.027l-2.402 2.526L11.732 9.5 16 5 11.732.5z"/></svg><svg viewBox="0 0 24 24" id="reuse-code-modules" xmlns="http://www.w3.org/2000/svg"><path d="M9 12l-4.463 4.969L0 12h3a9 9 0 019-9c2.395 0 4.565.942 6.179 2.468l-2.004 2.231A5.975 5.975 0 0012 6c-3.309 0-6 2.691-6 6h3zm10.463-4.969L15 12h3c0 3.309-2.691 6-6 6a5.978 5.978 0 01-4.175-1.699l-2.004 2.231A8.961 8.961 0 0012 21a9 9 0 009-9h3l-4.537-4.969z"/></svg><svg viewBox="0 0 24 24" id="search" xmlns="http://www.w3.org/2000/svg"><path d="M20.468 18.043l-3.762-3.732a7.284 7.284 0 001.151-3.939C17.857 6.307 14.525 3 10.428 3 6.332 3 3 6.307 3 10.372c0 4.065 3.332 7.373 7.429 7.373a7.423 7.423 0 003.796-1.038l3.795 3.766c1.62 1.606 4.069-.822 2.448-2.43zm-15.165-7.67c0-2.805 2.3-5.087 5.126-5.087 2.826 0 5.126 2.281 5.126 5.086s-2.3 5.087-5.126 5.087c-2.826 0-5.126-2.282-5.126-5.087z"/></svg><svg viewBox="0 0 8 13" id="slider-arrow-left" xmlns="http://www.w3.org/2000/svg"><path fill-rule="evenodd" clip-rule="evenodd" d="M8 11.5L6.5 13 0 6.5 6.5 0 8 1.5l-5 5 5 5z"/></svg><svg viewBox="0 0 8 13" id="slider-arrow-right" xmlns="http://www.w3.org/2000/svg"><path fill-rule="evenodd" clip-rule="evenodd" d="M0 1.5L1.5 0 8 6.5 1.5 13 0 11.5l5-5-5-5z"/></svg><svg viewBox="0 0 24 24" id="software-developers" xmlns="http://www.w3.org/2000/svg"><path d="M22 6v16H2V6h20zm2-6H0v24h24V0zM13 11v1.649L16.229 14 13 15.347V17l5-2.201V13.2L13 11zm-7 2.201V14.8l5 2.2v-1.653L7.771 14 11 12.649V11l-5 2.201z"/></svg><svg fill="none" viewBox="0 0 36 36" id="step-1" xmlns="http://www.w3.org/2000/svg"><path d="M24 10h8l-8-9v9z" fill="#0071CE"/><path fill-rule="evenodd" clip-rule="evenodd" d="M22 1v11h10v23H4V1h18zM9 17h18v2H9v-2zm0 5h18v2H9v-2zm10 5H9v2h10v-2z" fill="#0071CE"/></svg><svg fill="none" viewBox="0 0 36 36" id="step-2" xmlns="http://www.w3.org/2000/svg"><path d="M18 18.95L2.02 6h31.96L18 18.95zm0 3.433L2 9.416V30h32V9.416L18 22.383z" fill="#0071CE"/></svg><svg fill="none" viewBox="0 0 38 38" id="step-3" xmlns="http://www.w3.org/2000/svg"><path fill-rule="evenodd" clip-rule="evenodd" d="M19.994 33.902l9.451-9.452 2.309 5.874L12.215 38 4.603 18.623l15.391 15.28zM17.974 0H3.166v14.967l16.823 16.7 14.844-14.844L17.973 0zm6.373 15.004c-.657-.657-1.37-.977-2.182-.977-.915 0-1.943.381-3.438 1.273-1.08.649-1.77.924-2.305.924-.571 0-1.715-.646-1.521-1.928.082-.546.395-1.104.905-1.615 1.033-1.03 2.445-1.343 3.604-.168l1.178-1.178c-.754-.754-1.735-1.254-2.788-1.254-.896 0-1.782.36-2.633 1.072l-.992-.993-1.105 1.107 1.034 1.032c-.9 1.308-1.333 3.2.12 4.652 1.601 1.6 3.465.857 5.404-.367.95-.6 1.715-.892 2.336-.892.932 0 1.868.789 1.707 1.992-.083.611-.412 1.208-.984 1.777-.714.714-1.43 1.075-2.132 1.075-.662 0-1.183-.304-1.661-.732l-1.17 1.17c.733.726 1.713 1.193 2.747 1.193.861 0 1.72-.319 2.552-.946l.855.852 1.104-1.103-.824-.825c1.177-1.419 1.832-3.498.189-5.141zM9.023 3.167a2.69 2.69 0 11-.001 5.381 2.69 2.69 0 01.001-5.381z" fill="#0071CE"/></svg><svg fill="none" viewBox="0 0 32 32" id="studio" xmlns="http://www.w3.org/2000/svg"><path d="M25.366 10.591v10.816L16 26.815l-9.366-5.408V10.59L16 5.186l9.366 5.407z" fill="#881ADB"/><path d="M16 5.185l-9.366 5.407L16 16V5.185z" fill="#A653E4"/><path d="M16 16l-9.366 5.406L16 26.816V16M25.366 10.591L16 16.001l9.366 5.405V10.591z" fill="#5E11CE"/><path d="M16 5.185V16l9.366-5.409L16 5.186" fill="#8736DB"/><path d="M16 16v10.815l9.366-5.409L16 16" fill="#3D0BBD"/><path d="M18.842 20.01H11.49v-1.346h7.352a.995.995 0 100-1.99h-5.683a2.342 2.342 0 110-4.684h7.351v1.346h-7.352a.996.996 0 100 1.991h5.684a2.34 2.34 0 110 4.683z" fill="#fff"/></svg><svg viewBox="0 0 24 24" id="tw" xmlns="http://www.w3.org/2000/svg"><path d="M22 5.894a8.294 8.294 0 01-2.357.636 4.058 4.058 0 001.805-2.235 8.299 8.299 0 01-2.606.98A4.127 4.127 0 0015.847 4c-2.65 0-4.596 2.433-3.998 4.959a11.71 11.71 0 01-8.457-4.22 4.007 4.007 0 001.27 5.393 4.136 4.136 0 01-1.858-.505c-.045 1.87 1.318 3.622 3.291 4.011-.577.155-1.21.19-1.853.07.521 1.604 2.036 2.771 3.833 2.804A8.344 8.344 0 012 18.185 11.75 11.75 0 008.29 20c7.618 0 11.922-6.334 11.663-12.015A8.282 8.282 0 0022 5.895z"/></svg><svg viewBox="0 0 24 24" id="unify-sql-standards" xmlns="http://www.w3.org/2000/svg"><path d="M12 0a7 7 0 10.001 14.001A7 7 0 0012 0zm0 12a5 5 0 110-10 5 5 0 010 10zm1.484-4.315L15 6.228l-2.083-.287L12 4.049l-.917 1.892L9 6.228l1.516 1.457-.369 2.07L12 8.763l1.854.992-.37-2.07zm-1.734 8.302L8.026 24l-1.34-3.686L3 21.656l3.606-7.759a8.061 8.061 0 001.675 1.184l-1.48 3.188 1.371.639 1.51-3.25a8.096 8.096 0 002.068.329zM21 21.662l-3.66-1.345L16 24l-3.752-8.013a7.957 7.957 0 002.072-.332l1.523 3.251 1.353-.645-1.484-3.178a8 8 0 001.674-1.18L21 21.662z"/></svg><svg viewBox="0 0 24 24" id="work-safe" xmlns="http://www.w3.org/2000/svg"><path d="M12 4.942c1.827 1.105 3.474 1.6 5 1.833v7.76c0 1.606-.415 1.935-5 4.76V4.942zM21 3v11.535c0 4.603-3.203 5.804-9 9.465-5.797-3.661-9-4.862-9-9.465V3c3.516 0 5.629-.134 9-3 3.371 2.866 5.484 3 9 3zm-2 1.96c-2.446-.124-4.5-.611-7-2.416C9.5 4.349 7.446 4.836 5 4.96v9.575c0 3.042 1.69 3.83 7 7.107 5.313-3.281 7-4.065 7-7.107V4.96z"/></svg><svg viewBox="0 0 24 24" id="yt" xmlns="http://www.w3.org/2000/svg"><path d="M17.711 6.123c-2.703-.164-8.723-.164-11.422 0C3.366 6.3 3.022 7.869 3 12c.022 4.123.363 5.7 3.289 5.877 2.7.164 8.72.164 11.422 0C20.634 17.7 20.978 16.131 21 12c-.022-4.123-.363-5.7-3.289-5.877zM9.75 14.667V9.333l6 2.662-6 2.672z"/></svg></svg>